<?xml version="1.0" standalone="no"?>
<!DOCTYPE svg PUBLIC "-//W3C//DTD SVG 20010904//EN"
 "http://www.w3.org/TR/2001/REC-SVG-20010904/DTD/svg10.dtd">
<svg version="1.0" xmlns="http://www.w3.org/2000/svg"
 width="1017.000000pt" height="980.000000pt" viewBox="0 0 1017.000000 980.000000"
 preserveAspectRatio="xMidYMid meet">

<g transform="translate(0.000000,980.000000) scale(0.100000,-0.100000)"
fill="#000000" stroke="none">
<path d="M4758 9777 c9 -4 -59 -5 -153 -3 -93 2 -152 1 -130 -4 l40 -7 -35 -1
c-19 0 -62 3 -95 7 -71 9 -194 -8 -277 -38 -32 -12 -65 -21 -74 -21 -9 0 -30
-7 -47 -15 -36 -16 -208 -58 -214 -51 -5 5 53 41 92 57 17 6 68 22 115 35 69
19 76 22 35 18 -138 -16 -330 -82 -405 -138 -17 -13 -40 -21 -190 -65 -180
-54 -200 -61 -393 -149 -184 -83 -227 -108 -133 -76 51 18 72 13 34 -7 -12 -6
-61 -41 -107 -77 -82 -64 -89 -67 -233 -107 -81 -23 -148 -41 -148 -39 0 1 22
16 50 33 101 62 41 42 -125 -41 -101 -51 -313 -173 -350 -202 -24 -18 -13 -21
18 -5 12 7 -27 -36 -88 -94 -106 -102 -116 -109 -270 -185 l-160 -79 -171
-169 c-182 -181 -274 -292 -345 -418 -24 -43 -73 -110 -109 -150 -68 -74 -209
-280 -275 -401 -21 -38 -36 -68 -33 -65 3 3 33 40 67 83 34 42 63 77 66 77 3
0 -11 -31 -30 -70 -54 -108 -93 -193 -152 -340 -31 -74 -79 -171 -108 -215
-64 -96 -146 -259 -175 -346 -26 -75 -131 -482 -126 -486 2 -2 25 50 51 114
49 123 154 333 165 333 4 0 -5 -60 -20 -132 -15 -73 -37 -187 -49 -253 -66
-356 -71 -376 -121 -470 -27 -49 -66 -130 -87 -180 l-38 -90 -1 -235 c-1 -129
0 -219 3 -200 5 43 13 66 72 200 42 97 46 103 52 75 4 -16 7 -64 8 -105 2 -78
21 -260 42 -390 11 -75 11 -75 -29 -195 -22 -66 -49 -159 -59 -207 -9 -49 -20
-88 -23 -88 -9 0 -42 169 -51 263 -7 72 -7 68 -3 -33 7 -175 41 -511 65 -655
16 -95 47 -225 68 -285 l20 -55 -5 90 -5 90 49 -125 c28 -69 77 -186 109 -261
54 -122 60 -145 66 -226 11 -153 30 -216 112 -381 43 -84 79 -152 80 -150 2 2
-3 30 -11 63 -7 33 -14 94 -14 135 l0 74 51 -89 c59 -103 185 -303 223 -354
21 -28 26 -46 26 -91 0 -31 8 -89 19 -128 10 -40 16 -72 12 -72 -3 0 -41 49
-84 108 -42 59 -84 116 -93 127 -15 19 -15 19 -9 0 11 -34 156 -260 224 -349
211 -276 291 -373 291 -354 0 3 87 -81 193 -187 169 -167 230 -237 261 -295 4
-8 -79 73 -186 180 -213 215 -204 199 21 -39 141 -148 363 -361 473 -452 l53
-44 -31 40 c-34 45 -74 109 -74 119 0 4 33 -19 73 -52 39 -32 152 -118 250
-191 97 -72 185 -144 194 -159 76 -120 155 -196 298 -287 87 -56 239 -130 270
-131 24 -2 17 5 -40 33 -38 19 -82 47 -97 61 -35 32 -83 101 -76 108 3 3 57
-22 119 -55 158 -83 383 -181 416 -181 18 0 -25 23 -122 65 -131 57 -386 188
-422 217 -21 17 -15 118 7 118 5 0 53 -28 107 -61 114 -71 322 -181 439 -231
81 -34 82 -34 68 -59 -28 -50 -37 -49 314 -48 219 0 319 3 303 10 -13 5 -22
11 -20 13 2 2 38 15 80 29 l76 25 94 -35 c52 -20 114 -37 139 -40 38 -3 26 3
-69 38 -69 25 -108 45 -100 49 8 4 62 19 120 34 l107 27 103 -44 c57 -24 131
-54 164 -67 33 -13 64 -27 70 -32 5 -4 23 -8 39 -8 44 0 27 10 -130 79 -200
88 -198 84 -78 111 54 12 124 28 154 36 30 8 60 14 66 14 7 0 45 -31 86 -68
40 -38 90 -84 110 -101 41 -35 41 -51 3 -51 -13 0 -27 -4 -30 -10 -4 -7 160
-10 484 -10 473 0 491 1 491 19 0 10 6 37 14 59 22 61 1 75 -119 80 l-94 4
138 147 c76 80 169 180 205 222 l66 77 133 46 c72 25 152 51 177 57 62 17 205
17 262 0 93 -27 155 -108 173 -226 l8 -50 23 70 c26 79 31 179 12 252 -17 69
-86 136 -162 158 -91 27 -235 17 -348 -24 -47 -17 -89 -31 -92 -31 -3 0 19 46
49 103 84 160 118 292 124 488 2 37 235 163 377 204 320 93 633 -67 718 -366
19 -67 35 -224 30 -304 l-3 -60 14 55 c38 139 28 378 -21 507 -65 174 -215
303 -439 378 -150 51 -317 43 -500 -22 -65 -24 -163 -72 -193 -96 -19 -15 -26
-3 -57 98 -15 50 -51 151 -80 225 -49 125 -74 206 -89 287 -5 32 -5 32 77 63
97 37 283 91 399 116 112 24 395 25 524 1 193 -35 402 -122 529 -220 88 -68
192 -195 249 -307 76 -146 112 -274 145 -510 8 -61 9 -58 10 60 2 238 -47 432
-156 618 -150 257 -361 425 -667 531 -130 46 -235 61 -418 61 -192 0 -250 -8
-486 -67 -101 -25 -185 -43 -188 -40 -22 21 107 412 183 554 52 98 55 103 96
113 42 11 260 73 477 136 131 38 270 64 342 64 175 0 371 -71 505 -182 140
-116 441 -521 560 -753 103 -202 186 -439 229 -660 l13 -70 -5 85 c-14 215
-103 524 -223 775 -82 170 -269 504 -359 640 -85 128 -241 287 -339 345 -120
70 -207 93 -348 94 -149 1 -208 -12 -504 -110 -123 -41 -226 -73 -228 -70 -3
3 22 58 55 123 65 127 172 373 192 438 15 50 128 281 143 294 33 27 223 115
306 142 82 27 116 32 228 37 122 4 139 3 215 -21 191 -60 430 -247 595 -466
63 -82 153 -274 218 -459 143 -413 224 -613 369 -902 100 -199 150 -321 169
-415 20 -94 32 -62 17 46 -15 110 -47 206 -131 401 -133 306 -188 475 -309
945 -75 294 -100 368 -164 488 -120 227 -360 456 -606 580 -229 116 -448 133
-682 55 -50 -17 -92 -29 -94 -27 -9 9 28 288 47 357 29 109 119 383 129 394
13 14 245 -11 413 -44 320 -63 666 -196 865 -332 118 -81 285 -254 371 -383
149 -224 230 -422 336 -825 66 -253 93 -334 190 -575 86 -213 132 -348 145
-429 12 -76 20 -83 20 -16 0 128 -56 385 -179 825 -21 77 -67 259 -101 405
-83 351 -143 521 -246 693 -113 188 -295 382 -466 497 -147 98 -378 209 -625
299 -100 37 -402 113 -538 136 -55 9 -110 18 -123 21 -23 5 -23 7 -21 113 1
60 -2 114 -6 121 -4 6 -8 70 -10 143 -1 73 -8 150 -14 172 -33 123 -63 257
-58 262 11 10 233 -84 497 -210 115 -55 226 -101 390 -162 390 -146 510 -208
768 -402 216 -161 419 -390 637 -718 242 -365 394 -684 445 -932 20 -97 29
-96 30 3 1 325 -278 892 -699 1424 -224 282 -504 503 -856 675 -93 45 -253
123 -355 173 -102 50 -228 115 -280 145 -52 30 -158 89 -235 132 -154 85 -438
260 -453 278 -5 7 -33 68 -62 137 -65 157 -179 382 -265 524 -36 60 -64 111
-62 113 13 12 437 -230 656 -374 254 -168 369 -230 720 -393 363 -168 389
-181 531 -263 258 -148 500 -334 715 -551 234 -235 403 -438 552 -663 41 -62
79 -113 84 -113 5 0 9 18 9 40 0 22 -4 40 -9 40 -5 0 -40 50 -77 111 -96 155
-244 349 -417 548 -387 443 -708 682 -1312 976 -229 111 -500 261 -710 391
-166 102 -274 168 -330 199 -27 15 -131 73 -230 128 -99 55 -212 115 -251 133
-65 30 -73 38 -101 91 -17 32 -47 96 -66 143 -20 47 -47 110 -61 140 -14 30
-26 60 -26 67 0 15 119 -21 272 -83 62 -24 260 -118 439 -209 179 -90 425
-207 545 -261 458 -202 744 -364 1165 -659 358 -250 760 -646 974 -960 84
-122 99 -139 55 -60 -251 456 -832 1015 -1480 1426 -190 121 -296 177 -800
429 -642 321 -836 408 -1127 502 l-121 40 -84 146 c-45 81 -89 157 -97 171
l-13 24 43 -7 c120 -19 438 -120 734 -233 535 -204 960 -415 1378 -684 388
-250 631 -440 861 -673 105 -106 113 -113 70 -56 -76 102 -315 334 -474 461
-549 439 -1085 750 -1755 1019 -334 134 -539 204 -761 258 l-153 37 -25 55
c-41 92 -67 162 -62 168 7 7 152 -22 319 -64 485 -121 1072 -360 1522 -619
136 -78 388 -247 515 -345 103 -79 104 -80 43 -22 -73 71 -328 264 -468 354
-396 257 -921 496 -1420 647 -99 30 -419 111 -504 127 -41 8 -47 14 -92 87
-38 60 -44 77 -31 77 32 0 323 -69 480 -115 336 -96 611 -196 840 -305 78 -38
142 -67 142 -65 0 8 -204 111 -315 160 -350 152 -1267 448 -1410 455 -85 4
-105 1 -105 -16 0 -11 -6 -14 -20 -9 -65 21 -938 43 -892 22z m767 -57 c196
-17 182 -11 206 -91 12 -39 19 -72 16 -75 -2 -3 -69 2 -148 11 -79 9 -237 18
-351 22 -115 3 -208 10 -208 14 0 14 33 92 49 118 l15 24 156 -7 c85 -4 205
-11 265 -16z m-718 -27 c-13 -21 -29 -55 -36 -75 -7 -21 -18 -41 -24 -45 -7
-4 -111 -22 -232 -40 -121 -18 -239 -36 -262 -39 l-43 -7 16 47 c9 26 30 68
48 94 25 37 39 48 71 55 58 12 360 45 428 46 l57 1 -23 -37z m-727 -49 c0 -3
-15 -24 -34 -47 -18 -23 -45 -66 -60 -94 -17 -35 -34 -54 -49 -58 -12 -2 -58
-11 -102 -20 -44 -8 -138 -30 -210 -49 -71 -19 -132 -33 -133 -31 -7 6 65 110
97 143 45 45 75 58 188 86 54 13 109 29 123 35 14 6 57 18 95 25 87 17 85 17
85 10z m-671 -202 c-24 -26 -58 -68 -75 -93 -28 -41 -38 -48 -96 -62 -109 -28
-310 -68 -314 -64 -9 9 149 148 195 172 49 24 322 107 330 99 2 -2 -16 -25
-40 -52z m2070 47 c119 -6 232 -14 253 -17 l38 -7 39 -112 39 -112 -62 7 c-82
10 -453 9 -598 -1 l-117 -8 -10 38 c-6 21 -19 76 -28 121 -14 72 -14 85 -2 93
19 12 188 11 448 -2z m-753 -86 c-4 -27 -2 -84 4 -127 5 -44 9 -81 7 -82 -1
-1 -49 -12 -106 -24 -57 -11 -187 -41 -288 -66 -102 -25 -188 -42 -191 -39
-15 14 15 272 32 283 15 10 474 100 514 101 l34 1 -6 -47z m-832 -247 l-18
-144 -116 -22 c-63 -11 -124 -25 -135 -29 -30 -14 -296 -64 -302 -57 -4 3 11
56 32 118 65 191 47 170 178 201 63 15 121 27 129 27 8 0 20 6 26 13 11 10
211 48 221 41 1 -2 -5 -68 -15 -148z m-684 -10 c0 -3 -120 -257 -125 -264 -4
-5 -85 -11 -230 -17 -77 -3 -166 -9 -197 -14 -32 -4 -58 -4 -58 1 0 12 67 106
120 168 l48 55 158 24 c88 13 181 30 209 37 55 13 75 16 75 10z m2642 -12 c32
-6 39 -12 49 -43 6 -20 34 -85 60 -144 27 -60 49 -112 49 -116 0 -4 -39 -3
-87 2 -182 18 -474 -7 -663 -58 -30 -8 -56 -13 -58 -10 -2 2 -15 45 -28 97
-13 51 -34 121 -45 156 -12 35 -19 65 -16 68 6 6 158 32 249 43 87 10 437 13
490 5z m-3282 -102 c0 -5 -14 -21 -31 -38 -17 -16 -58 -63 -91 -104 l-61 -75
-121 -22 c-67 -12 -155 -31 -196 -42 -41 -11 -77 -18 -79 -15 -8 7 109 123
172 170 70 52 138 79 282 109 133 28 125 27 125 17z m2204 -19 c2 -10 7 -34
11 -53 4 -19 20 -93 37 -163 17 -72 27 -132 22 -136 -10 -9 -209 -65 -374
-106 -58 -14 -156 -42 -217 -62 -62 -20 -116 -33 -120 -29 -9 9 -14 322 -6
378 l5 36 206 52 c210 53 397 98 419 99 6 1 14 -7 17 -16z m-924 -235 c0 -13
-5 -54 -11 -93 -12 -80 -14 -249 -4 -293 6 -29 4 -31 -32 -41 -21 -6 -74 -18
-118 -27 -44 -9 -89 -20 -100 -24 -23 -10 -188 -29 -287 -33 -44 -2 -69 1 -72
9 -12 30 22 376 39 404 3 5 38 14 78 20 125 21 232 42 242 49 10 6 214 47 248
50 11 1 17 -6 17 -21z m-830 -90 c0 -2 -16 -64 -34 -139 -19 -74 -38 -163 -42
-197 -8 -73 15 -68 -219 -47 -88 8 -213 15 -277 15 -77 0 -118 4 -118 11 0 12
133 276 152 301 7 9 25 19 39 22 36 6 309 26 399 29 41 2 81 4 88 5 6 1 12 1
12 0z m3056 -13 c14 -4 36 -37 65 -97 24 -50 72 -143 106 -206 l62 -115 -77 7
c-195 16 -311 18 -397 6 -109 -15 -227 -51 -317 -96 -37 -19 -69 -34 -72 -34
-7 0 -63 92 -94 155 -27 54 -102 256 -102 275 0 12 237 75 430 114 33 6 369
-1 396 -9z m-3826 -60 c0 -2 -27 -46 -61 -97 -34 -51 -74 -118 -89 -149 l-29
-56 -75 -6 c-89 -8 -197 -29 -309 -62 -45 -13 -83 -22 -85 -20 -12 12 184 296
220 318 47 29 428 93 428 72z m-620 -139 c0 -3 -28 -42 -63 -88 -34 -46 -84
-118 -111 -160 -46 -74 -51 -79 -140 -126 -51 -27 -128 -72 -170 -101 -43 -29
-80 -50 -82 -48 -5 5 123 193 186 272 76 96 130 138 253 200 104 52 127 61
127 51z m3314 -138 c36 -94 116 -233 195 -338 38 -50 47 -68 38 -78 -34 -42
-218 -143 -382 -210 -55 -23 -138 -58 -185 -78 -129 -55 -124 -56 -158 12 -61
121 -222 487 -222 504 0 4 28 18 63 30 34 13 127 51 207 86 80 34 197 85 260
113 63 27 123 49 133 48 13 -1 28 -26 51 -89z m-2476 -278 c160 -12 440 -45
448 -53 3 -3 12 -56 19 -119 13 -110 35 -228 55 -297 5 -19 9 -36 7 -37 -1 -1
-55 9 -119 22 -158 32 -299 44 -515 44 -100 0 -184 3 -186 8 -9 15 38 355 59
425 6 20 29 21 232 7z m-511 -22 c-3 -13 -17 -63 -32 -113 -15 -49 -36 -134
-46 -189 -11 -54 -21 -102 -24 -106 -2 -4 -48 -10 -102 -13 -127 -9 -299 -40
-390 -71 -52 -18 -73 -21 -73 -12 0 13 99 259 143 358 26 57 27 57 94 77 155
45 279 72 427 90 4 1 6 -9 3 -21z m2071 -261 c62 -155 116 -291 118 -303 5
-18 -2 -22 -68 -38 -82 -20 -177 -34 -285 -42 -105 -9 -400 49 -414 80 -25 60
-128 451 -129 489 0 4 57 7 128 8 134 0 194 9 382 57 63 17 124 30 135 31 17
0 37 -42 133 -282z m2371 275 c44 -7 46 -9 157 -162 161 -222 296 -423 345
-514 41 -76 42 -79 18 -73 -194 47 -354 43 -520 -13 -50 -16 -92 -30 -94 -30
-1 0 -33 42 -70 94 -85 120 -205 243 -370 378 -221 181 -213 174 -190 192 68
52 227 110 348 125 77 10 316 12 376 3z m-5159 -197 c0 -3 -14 -34 -32 -68
-17 -34 -57 -131 -89 -216 -32 -85 -60 -155 -61 -156 -2 -2 -38 -24 -80 -50
-43 -25 -134 -89 -203 -140 -93 -69 -124 -88 -119 -72 9 31 137 314 183 405
33 66 48 84 107 128 94 69 265 172 287 174 4 0 7 -2 7 -5z m4289 -270 c40 -31
132 -96 205 -145 230 -157 380 -304 356 -349 -16 -31 -216 -218 -277 -259
-114 -77 -283 -138 -433 -155 l-45 -6 -35 62 c-44 78 -149 183 -315 317 -161
129 -275 229 -275 241 0 12 6 14 380 154 171 64 264 111 308 156 20 21 42 38
48 39 6 0 43 -25 83 -55z m-3711 -420 c1 -93 -1 -226 -5 -295 l-8 -125 -117
-17 c-185 -26 -303 -53 -448 -102 -150 -51 -174 -55 -166 -28 2 9 16 85 31
167 45 262 75 408 86 421 16 20 149 72 251 99 108 28 289 54 353 51 19 -1 20
-9 23 -171z m1014 146 c59 -11 145 -31 191 -45 l84 -26 13 -62 c14 -71 15
-257 2 -333 -13 -69 -75 -369 -77 -373 -1 -1 -50 29 -108 67 -224 148 -401
209 -667 229 l-100 7 -5 284 -5 284 283 -6 c217 -5 307 -11 389 -26z m1579
-286 c39 -41 128 -116 197 -166 70 -51 140 -104 155 -118 30 -27 92 -110 85
-115 -1 -1 -64 -12 -138 -24 -140 -23 -564 -122 -717 -168 -233 -69 -307 -85
-410 -87 -64 -1 -106 2 -113 9 -22 22 -22 155 -1 319 12 88 21 216 21 284 0
123 0 123 23 117 206 -61 341 -76 518 -56 105 11 243 46 279 70 8 5 18 10 23
10 4 0 39 -34 78 -75z m-3461 31 c0 -3 -15 -65 -34 -138 -31 -120 -86 -357
-101 -433 -4 -22 -20 -40 -56 -64 -102 -70 -250 -231 -353 -385 -28 -43 -46
-62 -46 -50 0 18 7 60 61 344 11 58 34 167 51 243 l31 138 107 102 c118 115
340 273 340 243z m6077 -192 c29 -8 46 -67 72 -259 24 -173 30 -283 21 -375
-4 -37 -2 -72 3 -81 7 -11 1 -52 -19 -135 l-29 -118 -110 -41 c-60 -23 -173
-75 -250 -117 -242 -133 -358 -178 -454 -178 l-42 0 40 73 c58 105 121 254
119 280 -1 12 6 43 15 69 66 188 108 404 113 577 l3 134 133 71 c73 38 156 78
183 88 49 17 158 24 202 12z m-822 -424 c-10 -130 -42 -281 -91 -429 -24 -74
-43 -139 -42 -145 3 -17 -11 -54 -63 -162 -27 -56 -57 -108 -66 -115 -12 -11
-60 -14 -212 -13 -174 1 -216 5 -376 34 -156 28 -209 33 -397 37 -154 4 -218
9 -218 17 0 22 58 133 87 167 16 19 32 42 36 51 5 15 58 51 306 210 62 40 98
71 119 104 l31 46 138 2 c107 2 154 7 210 23 112 33 236 96 346 176 56 41 120
86 142 100 l40 27 8 -23 c5 -12 6 -60 2 -107z m-4435 -310 c-5 -113 -10 -262
-10 -331 0 -70 -3 -140 -6 -156 l-6 -29 -81 13 c-210 31 -500 -8 -659 -88 -58
-29 -61 -27 -53 39 4 31 9 82 10 112 4 74 35 440 40 466 3 12 13 24 22 27 10
3 68 23 129 45 60 22 156 50 211 62 115 25 394 60 405 51 4 -3 3 -98 -2 -211z
m515 205 c115 -24 198 -63 355 -165 176 -114 238 -140 426 -176 16 -3 27 -20
43 -61 31 -85 68 -234 86 -343 14 -92 21 -351 9 -363 -3 -3 -31 3 -62 14 -40
14 -104 22 -212 28 -193 12 -223 19 -560 140 -80 29 -170 62 -201 72 l-56 20
3 292 c3 161 7 352 10 425 l6 132 39 0 c22 0 73 -7 114 -15z m2438 -21 c54 -5
77 -11 77 -20 0 -8 -67 -80 -148 -161 -99 -99 -153 -161 -164 -188 -25 -63
-48 -178 -48 -244 0 -58 -1 -61 -27 -67 -163 -36 -224 -87 -343 -289 -29 -49
-65 -108 -80 -130 -67 -97 -171 -175 -251 -190 l-36 -7 -5 84 c-4 50 -28 176
-62 318 -53 224 -89 417 -80 432 3 4 24 7 47 6 58 -1 88 17 216 126 133 114
176 144 280 196 105 52 231 93 351 114 160 27 174 28 273 20z m-3983 -496 c-6
-101 -13 -244 -16 -320 -2 -75 -8 -148 -14 -163 -5 -14 -43 -61 -83 -103 -124
-131 -204 -237 -303 -399 -10 -15 -13 -8 -18 42 -4 33 -12 82 -18 109 -6 27
-11 142 -12 256 l-1 207 39 59 c87 132 216 294 317 398 60 61 111 107 115 104
3 -4 1 -89 -6 -190z m6226 -290 c-15 -54 -18 -210 -6 -342 15 -161 7 -250 -35
-429 -20 -84 -29 -106 -52 -125 -226 -186 -380 -262 -608 -298 -130 -20 -565
-32 -565 -15 0 6 26 35 57 64 222 201 270 263 280 361 5 46 0 66 -35 153 -22
56 -42 121 -43 144 l-4 44 88 7 c174 13 291 64 558 244 187 125 334 214 357
214 10 0 12 -7 8 -22z m-1577 -243 c39 -8 107 -29 152 -46 l81 -31 -8 -32
c-16 -62 -7 -138 30 -240 65 -178 53 -224 -106 -397 -45 -49 -104 -120 -132
-160 l-51 -72 -177 -57 c-97 -32 -208 -63 -245 -69 -94 -14 -233 -20 -233 -9
0 5 15 31 34 58 40 59 69 141 92 265 21 115 14 356 -15 490 -18 82 -19 91 -4
100 9 6 44 29 77 52 92 64 196 125 246 144 56 23 165 24 259 4z m-3743 -157
c8 -6 3 -38 -18 -110 -47 -168 -58 -234 -65 -409 l-6 -166 -116 -6 c-64 -3
-145 -13 -181 -23 -78 -20 -215 -82 -264 -119 -42 -32 -40 -35 -56 90 -18 154
-19 165 -26 372 -5 165 -4 206 7 220 16 19 169 92 245 117 113 37 177 45 324
43 80 -1 150 -6 156 -9z m471 -99 c48 -11 156 -43 238 -69 207 -68 295 -87
475 -105 188 -19 310 -43 317 -63 11 -27 -66 -335 -143 -575 -25 -78 -47 -148
-50 -155 -2 -8 -10 -11 -17 -9 -21 9 -199 65 -272 86 -38 11 -124 36 -190 55
-66 18 -185 55 -265 80 -80 26 -183 58 -230 73 -47 14 -88 28 -91 32 -8 7 13
172 37 301 12 68 56 240 90 353 6 21 -5 21 101 -4z m2440 -36 c4 -21 7 -96 7
-168 -1 -212 -36 -322 -177 -555 l-63 -105 -73 -7 c-83 -9 -108 -15 -203 -51
-38 -15 -68 -22 -68 -16 0 6 -7 6 -20 -1 -11 -6 -66 -26 -122 -45 -57 -20
-111 -40 -120 -45 -69 -39 -328 -68 -328 -37 0 74 101 404 169 551 21 46 44
100 51 120 9 27 18 37 38 41 158 30 322 103 507 226 139 93 179 109 283 119
48 4 92 8 99 9 7 0 16 -16 20 -36z m-3847 -167 c0 -2 7 -68 15 -146 19 -176
28 -239 62 -407 l27 -132 -60 -63 c-67 -72 -119 -146 -160 -231 -15 -31 -31
-57 -34 -57 -10 0 -132 399 -169 552 -11 46 -10 51 23 118 19 38 55 101 80
139 60 94 216 257 216 227z m6047 -588 c-136 -338 -186 -454 -238 -553 -34
-66 -67 -123 -73 -127 -6 -4 -42 -12 -81 -18 -288 -48 -453 -96 -743 -216
-163 -68 -189 -75 -177 -46 42 99 83 346 89 526 3 82 7 150 10 153 9 9 125 32
266 53 510 74 701 119 866 204 76 38 89 42 81 24z m-6326 -436 c32 -90 59
-172 59 -183 0 -10 -11 -58 -25 -106 -14 -48 -32 -128 -40 -177 -8 -49 -16
-91 -19 -93 -5 -5 -118 262 -173 411 -35 94 -43 127 -38 155 11 62 53 222 80
311 l27 84 35 -119 c19 -66 61 -193 94 -283z m1191 -69 c39 -212 103 -436 172
-603 5 -13 -16 -15 -156 -16 -130 -1 -180 -5 -248 -22 -47 -11 -88 -18 -92
-14 -28 28 -238 645 -238 700 0 27 45 49 151 76 114 28 356 57 373 44 5 -4 22
-78 38 -165z m388 132 c352 -74 540 -122 680 -170 125 -43 170 -63 170 -75 0
-5 -9 -80 -21 -167 -15 -118 -21 -210 -20 -363 0 -113 2 -214 3 -225 2 -11 -1
-19 -7 -18 -22 5 -223 81 -266 101 -103 47 -298 99 -439 117 -30 4 -62 11 -72
16 -9 5 -31 55 -52 122 -65 208 -83 297 -131 650 -6 46 -4 46 155 12z m3137
-198 c-73 -214 -81 -263 -74 -452 l7 -159 -29 -31 c-16 -16 -59 -75 -97 -130
-84 -125 -94 -136 -174 -189 -71 -47 -271 -156 -286 -156 -12 0 -116 279 -143
385 -35 134 -43 230 -31 408 11 178 25 279 43 316 7 14 32 35 56 48 55 28 142
30 351 7 158 -17 255 -11 346 24 27 10 51 14 52 10 2 -5 -7 -41 -21 -81z
m-4157 -144 c73 -211 110 -310 157 -419 36 -82 36 -86 18 -97 -40 -22 -107
-93 -142 -149 -20 -32 -39 -58 -43 -58 -10 0 -193 361 -239 474 l-41 99 72
114 c71 111 149 214 157 207 2 -2 30 -79 61 -171z m3115 -245 c-29 -342 -14
-495 77 -780 12 -37 19 -71 15 -75 -4 -4 -58 -7 -120 -6 -121 1 -246 23 -287
52 -43 29 -310 139 -573 236 -27 9 -51 23 -53 29 -15 38 109 672 142 727 2 3
43 -5 91 -18 69 -18 116 -24 213 -25 69 -1 144 4 167 9 29 7 45 7 52 0 15 -15
154 7 226 37 33 13 62 23 63 21 2 -2 -4 -95 -13 -207z m2219 -5 c-4 -10 -27
-76 -51 -147 -58 -170 -100 -338 -109 -435 l-6 -79 -82 -40 c-153 -76 -310
-220 -414 -381 l-56 -85 -12 30 c-21 52 -144 509 -169 630 -16 77 -21 123 -15
134 16 29 157 120 273 175 178 84 377 154 552 195 101 23 99 23 89 3z m-5606
-178 c38 -77 104 -201 147 -275 l77 -134 -26 -106 c-14 -58 -28 -124 -32 -148
-4 -23 -10 -44 -13 -47 -10 -6 -114 163 -210 341 -90 166 -91 171 -66 312 15
86 45 205 51 199 2 -1 34 -66 72 -142z m4555 -593 c21 -59 58 -170 83 -247 25
-77 59 -178 76 -225 49 -138 51 -126 -40 -211 -79 -74 -174 -130 -303 -178
-69 -26 -330 -91 -340 -85 -15 9 -49 134 -89 325 -22 108 -40 204 -40 213 0 9
8 19 18 23 98 33 236 94 285 126 104 67 214 197 278 329 12 26 25 45 28 42 3
-3 22 -53 44 -112z m-3361 59 c64 -11 122 -22 128 -26 6 -4 35 -55 65 -113 30
-59 69 -134 88 -167 18 -33 68 -125 111 -205 43 -80 87 -157 97 -172 11 -14
19 -28 19 -30 0 -1 -86 -3 -191 -3 l-190 1 -97 144 c-54 80 -129 195 -168 255
-39 61 -101 156 -138 212 -37 56 -65 107 -61 113 10 17 210 12 337 -9z m-283
-272 c91 -135 201 -294 244 -353 42 -59 77 -109 77 -112 0 -2 -7 -4 -16 -4 -9
0 -64 -16 -123 -35 -87 -30 -107 -34 -116 -22 -5 7 -60 74 -121 148 -130 158
-213 267 -279 367 -55 83 -54 89 12 162 37 42 130 102 147 97 5 -2 84 -113
175 -248z m833 186 c163 -25 299 -56 408 -93 44 -15 58 -25 72 -53 9 -19 46
-95 82 -169 56 -117 240 -438 267 -464 21 -22 9 -35 -28 -29 -178 25 -642 123
-669 141 -26 17 -354 656 -354 690 0 10 8 12 28 8 15 -3 102 -17 194 -31z
m3737 -237 c13 -40 43 -111 66 -158 102 -204 170 -387 153 -407 -33 -40 -441
-313 -467 -313 -5 0 -37 64 -72 143 -35 78 -83 180 -106 227 l-42 85 32 43
c125 168 380 452 406 452 4 0 18 -33 30 -72z m-2803 6 c110 -31 422 -133 459
-150 50 -23 152 -34 307 -34 l147 0 11 -42 c34 -130 91 -309 126 -393 19 -44
34 -86 34 -93 0 -12 -17 -13 -99 -8 -54 4 -143 14 -197 22 -55 8 -187 25 -294
39 -191 25 -298 41 -332 51 -27 8 -253 487 -293 622 -8 26 -9 26 131 -14z
m-2076 -128 c47 -60 143 -177 213 -259 l129 -149 -24 -36 c-13 -20 -35 -62
-47 -92 -13 -30 -24 -56 -25 -57 -4 -4 -197 216 -326 370 l-123 148 11 47 c6
26 25 79 42 117 l32 70 16 -25 c10 -13 55 -74 102 -134z m-86 -306 c59 -72
154 -179 212 -239 l104 -109 0 -63 c0 -35 4 -80 10 -98 5 -19 8 -36 7 -38 -5
-4 -296 287 -358 359 -51 59 -59 75 -73 140 -19 91 -28 178 -18 178 4 0 56
-59 116 -130z m4403 -238 c18 -37 59 -118 93 -181 33 -62 60 -119 60 -125 0
-28 -373 -219 -518 -267 l-100 -33 -29 35 c-15 19 -71 81 -123 139 -98 108
-155 179 -149 185 2 1 64 15 136 30 146 29 269 67 353 110 67 34 165 103 204
144 17 17 32 31 35 31 3 0 20 -31 38 -68z m-2813 -229 c98 -103 313 -301 429
-393 31 -25 56 -48 57 -51 0 -4 -57 -10 -127 -13 -71 -4 -149 -9 -175 -11 -46
-5 -48 -4 -140 72 -51 42 -128 111 -172 152 -110 106 -308 322 -302 329 9 8
130 19 235 21 l95 1 100 -107z m281 62 c217 -32 392 -63 430 -76 19 -6 47 -33
75 -71 60 -82 261 -283 332 -333 31 -22 57 -44 58 -49 0 -12 -520 1 -553 13
-13 5 -73 53 -133 108 -142 127 -434 413 -434 424 0 14 42 11 225 -16z m-749
-47 c111 -121 361 -364 437 -423 41 -33 75 -61 74 -62 -2 -1 -58 -9 -127 -17
l-124 -15 -55 45 c-101 83 -365 321 -436 393 -44 45 -66 74 -60 80 17 17 159
60 197 61 32 0 43 -7 94 -62z m4122 -55 c-6 -118 -38 -235 -99 -355 -51 -102
-61 -112 -151 -148 -115 -46 -280 -101 -286 -96 -2 3 7 35 21 73 49 131 59
177 62 282 l3 103 130 68 c72 38 170 94 219 124 48 30 92 55 97 56 5 0 7 -47
4 -107z m-4095 -327 c147 -125 174 -153 161 -161 -9 -5 -39 -25 -66 -43 -27
-19 -55 -31 -61 -29 -28 12 -517 432 -517 444 0 9 43 68 73 100 l30 32 101
-96 c56 -52 181 -163 279 -247z m1802 298 c167 -4 304 -2 360 4 77 9 92 9 101
-4 68 -88 131 -153 288 -296 23 -20 38 -39 34 -43 -16 -16 -304 -45 -519 -51
l-236 -7 -94 75 c-52 41 -124 104 -160 140 -66 65 -169 184 -169 195 0 3 28 3
63 -1 34 -3 184 -9 332 -12z m-2172 -249 c49 -43 156 -134 239 -201 l152 -121
1 -72 c1 -39 0 -71 -3 -71 -13 0 -289 213 -424 327 -94 80 -108 104 -108 194
0 77 -6 79 143 -56z m3872 28 c21 -83 -12 -353 -45 -373 -7 -4 -31 -11 -52
-14 -47 -8 -258 -67 -342 -96 -33 -11 -63 -17 -66 -13 -3 5 -12 30 -18 57 -7
26 -29 82 -49 122 -20 41 -34 76 -32 78 2 1 42 16 89 32 47 16 175 74 285 130
110 55 205 101 211 102 7 1 15 -10 19 -25z m-720 -334 c47 -66 105 -171 105
-191 0 -15 -50 -32 -165 -59 -75 -16 -260 -49 -281 -49 -11 0 -43 19 -70 43
-27 23 -98 78 -157 122 l-108 80 33 7 c18 3 112 16 208 28 96 13 222 33 280
45 58 13 108 23 112 24 3 1 23 -22 43 -50z m-811 -91 c25 -18 108 -77 185
-131 131 -92 163 -117 145 -117 -5 0 -91 -14 -193 -31 -103 -17 -195 -31 -206
-31 -37 -1 -513 308 -498 323 5 5 105 10 223 12 118 1 234 3 256 5 33 2 51 -5
88 -30z m-519 -108 c88 -58 204 -130 257 -160 54 -29 95 -56 92 -59 -3 -3 -64
-17 -137 -32 l-131 -27 -70 35 c-91 46 -203 116 -351 221 -66 46 -124 88 -128
92 -13 11 277 52 298 41 6 -2 82 -52 170 -111z m-435 -10 c175 -123 248 -170
351 -224 73 -39 96 -55 83 -59 -11 -3 -62 -15 -115 -28 l-96 -22 -107 56 c-59
32 -149 83 -199 115 -188 118 -276 177 -277 183 0 9 243 57 255 51 6 -3 53
-35 105 -72z m2711 42 c-39 -50 -255 -283 -314 -341 -39 -38 -55 -46 -114 -57
-37 -7 -74 -13 -81 -14 -7 0 10 33 38 73 29 39 85 122 125 183 l73 111 109 28
c59 15 124 34 143 41 53 19 54 17 21 -24z m-2967 -139 c168 -105 411 -243 431
-244 5 0 -19 -15 -55 -33 l-65 -33 -80 34 c-142 60 -522 273 -540 303 -8 13
95 74 134 79 2 1 81 -47 175 -106z m2605 45 c-49 -95 -186 -312 -203 -323 -19
-11 -130 -35 -167 -35 -15 0 -15 12 -11 197 2 74 4 84 25 94 23 13 359 99 365
94 2 -2 -2 -14 -9 -27z m-438 -230 c9 -73 13 -137 9 -142 -5 -5 -49 -9 -99
-10 -104 -1 -104 -1 -213 132 -69 83 -73 76 67 107 44 9 103 23 130 30 95 24
88 32 106 -117z"/>
<path d="M4108 9763 c6 -2 18 -2 25 0 6 3 1 5 -13 5 -14 0 -19 -2 -12 -5z"/>
<path d="M102 5930 c0 -14 2 -19 5 -12 2 6 2 18 0 25 -3 6 -5 1 -5 -13z"/>
<path d="M72 5815 c-12 -50 -22 -101 -21 -115 1 -14 12 22 25 80 13 58 22 109
20 115 -1 5 -12 -31 -24 -80z"/>
<path d="M42 5645 c0 -16 2 -22 5 -12 2 9 2 23 0 30 -3 6 -5 -1 -5 -18z"/>
<path d="M33 5535 c0 -22 2 -30 4 -17 2 12 2 30 0 40 -3 9 -5 -1 -4 -23z"/>
<path d="M22 5400 c0 -19 2 -27 5 -17 2 9 2 25 0 35 -3 9 -5 1 -5 -18z"/>
<path d="M23 4640 c0 -36 2 -50 4 -32 2 17 2 47 0 65 -2 17 -4 3 -4 -33z"/>
<path d="M221 3334 c-1 -7 15 -56 35 -110 19 -55 42 -118 51 -142 8 -24 17
-41 19 -39 2 2 -18 64 -44 138 -61 168 -60 166 -61 153z"/>
</g>
</svg>
