<?xml version="1.0" standalone="no"?>
<!DOCTYPE svg PUBLIC "-//W3C//DTD SVG 20010904//EN"
 "http://www.w3.org/TR/2001/REC-SVG-20010904/DTD/svg10.dtd">
<svg version="1.0" xmlns="http://www.w3.org/2000/svg"
 width="3000.000000pt" height="600.000000pt" viewBox="0 0 3000.000000 600.000000"
 preserveAspectRatio="xMidYMid meet">

<g transform="translate(0.000000,600.000000) scale(0.100000,-0.100000)"
fill="#000000" stroke="none">
<path d="M11835 5593 c-11 -2 -62 -18 -114 -34 -104 -33 -137 -33 -76 -1 37
20 38 22 10 16 -16 -3 -66 -23 -110 -44 -44 -21 -109 -46 -145 -56 -96 -26
-263 -101 -255 -114 3 -5 -19 -25 -47 -46 -56 -40 -174 -80 -181 -61 -2 6 -45
-12 -96 -39 -67 -35 -118 -72 -176 -127 -57 -54 -104 -88 -155 -113 -113 -54
-278 -217 -360 -354 -21 -36 -48 -74 -60 -85 -26 -23 -109 -144 -134 -195
l-18 -35 26 30 c32 38 33 27 1 -34 -13 -27 -40 -87 -60 -135 -20 -48 -52 -112
-71 -142 -19 -30 -44 -76 -56 -102 -19 -45 -69 -213 -82 -277 -5 -29 -5 -29 6
-5 56 123 90 191 94 187 3 -2 -6 -62 -20 -133 -14 -71 -30 -158 -37 -194 -7
-36 -27 -94 -45 -130 -60 -121 -64 -136 -64 -249 l0 -106 23 55 c42 101 43
101 51 4 3 -49 11 -119 18 -156 10 -61 9 -73 -15 -150 -14 -45 -29 -96 -33
-113 l-7 -30 -13 45 -13 45 4 -50 c3 -27 7 -86 11 -130 7 -97 38 -257 54 -282
9 -15 10 -12 5 17 -9 53 7 26 62 -110 38 -92 53 -144 58 -198 6 -57 16 -91 50
-160 l44 -87 -6 63 c-3 34 -3 62 0 62 3 0 20 -26 38 -57 18 -32 52 -87 76
-123 27 -41 43 -76 43 -95 0 -17 4 -46 10 -64 5 -19 8 -36 6 -38 -2 -3 -23 23
-46 56 -80 114 -54 58 34 -74 69 -103 149 -196 291 -337 76 -75 135 -141 131
-146 -5 -9 100 -118 159 -164 l30 -23 -18 25 c-9 13 -17 28 -17 32 0 18 258
-189 290 -233 19 -27 56 -64 81 -83 58 -43 178 -110 185 -103 3 3 -8 12 -24
21 -27 14 -87 75 -80 81 2 2 57 -23 123 -56 66 -32 127 -59 135 -59 8 0 -49
32 -128 71 -135 66 -142 72 -142 100 0 16 5 29 10 29 6 0 52 -24 103 -53 50
-29 122 -66 160 -82 52 -23 66 -34 63 -47 -4 -17 8 -18 152 -18 123 0 166 4
201 17 41 16 47 16 91 0 60 -21 88 -21 38 0 -21 8 -38 18 -38 22 0 4 26 13 58
20 56 12 58 12 140 -23 112 -48 138 -45 37 3 -87 42 -88 42 19 66 l68 15 59
-51 c32 -28 59 -55 59 -60 0 -5 106 -9 244 -9 l244 0 6 26 c9 35 -1 44 -57 52
l-46 7 105 115 c101 110 108 116 181 143 92 34 177 44 226 28 43 -15 87 -63
87 -96 0 -43 17 -36 29 12 40 156 -84 244 -259 183 -30 -10 -56 -17 -58 -16
-1 2 10 24 24 50 32 57 64 173 64 231 0 40 2 42 63 77 144 84 261 98 371 44
102 -50 151 -130 163 -267 7 -83 7 -83 15 -39 12 58 2 171 -19 235 -21 64 -98
142 -178 180 -111 53 -265 45 -384 -21 -44 -24 -61 -24 -61 2 0 8 -20 67 -44
132 -25 64 -48 133 -51 153 l-6 35 78 27 c139 47 195 57 321 57 349 0 561
-172 617 -500 l13 -75 1 71 c4 288 -213 547 -512 611 -102 21 -273 13 -397
-21 -112 -30 -110 -30 -110 -12 0 27 52 180 87 258 34 74 38 79 77 88 22 6 77
22 121 35 181 55 245 68 329 63 153 -9 245 -71 387 -260 124 -166 203 -320
245 -480 22 -81 34 -94 23 -25 -24 154 -99 336 -229 562 -110 192 -179 269
-287 322 -106 51 -251 40 -451 -37 -29 -11 -62 -20 -73 -20 l-21 0 20 33 c23
37 112 235 112 249 0 5 16 42 36 84 39 83 62 102 174 147 82 32 171 43 241 28
116 -25 290 -164 370 -296 21 -33 67 -143 104 -245 78 -217 130 -342 191 -461
25 -48 55 -118 69 -155 13 -38 24 -62 24 -53 2 44 -24 130 -83 272 -60 143
-97 262 -172 547 -51 193 -133 318 -283 431 -127 96 -258 138 -377 119 -36 -6
-83 -17 -105 -24 -37 -13 -39 -13 -39 8 1 58 24 172 56 275 l36 113 67 -7
c254 -26 517 -119 656 -232 108 -88 203 -224 265 -383 12 -30 42 -129 66 -219
25 -91 71 -232 104 -315 32 -83 65 -176 73 -206 23 -84 20 -20 -4 101 -11 57
-38 167 -59 244 -21 77 -57 216 -79 308 -60 249 -131 388 -262 513 -76 71
-129 109 -224 157 -152 77 -337 139 -506 167 l-66 11 -11 147 c-6 81 -19 175
-28 210 -9 35 -14 66 -10 69 7 7 90 -26 226 -90 58 -27 175 -76 260 -109 172
-66 239 -101 356 -183 100 -71 157 -126 249 -240 153 -190 276 -406 340 -596
33 -100 34 -102 35 -58 1 107 -86 325 -205 514 -208 330 -355 464 -695 631
-320 158 -640 342 -640 369 0 19 -106 240 -153 318 -25 42 -43 77 -39 77 14 0
227 -122 351 -202 69 -44 137 -87 150 -96 13 -8 118 -58 232 -112 349 -163
488 -258 687 -465 116 -120 261 -300 285 -352 5 -13 14 -23 19 -23 4 0 8 -63
8 -140 l0 -140 323 -2 322 -3 3 -1272 2 -1273 625 0 625 0 2 1273 3 1272 413
3 412 2 0 460 0 460 -416 0 -417 0 6 128 c15 385 168 475 845 498 166 6 192 9
192 23 0 15 -9 128 -49 644 -11 131 -22 241 -24 244 -8 7 -482 -24 -652 -43
-717 -79 -1172 -339 -1405 -803 -75 -149 -138 -397 -155 -603 l-7 -88 -324 0
-324 0 -2 -302 -3 -303 -56 85 c-118 180 -303 391 -442 503 -134 109 -241 175
-469 290 -112 57 -268 143 -348 192 -167 101 -289 172 -412 239 l-86 47 -45
102 c-33 75 -41 103 -31 105 22 5 190 -65 354 -150 85 -43 211 -104 280 -134
448 -198 831 -470 1067 -758 88 -108 101 -120 68 -66 -130 210 -431 486 -755
690 -161 101 -765 399 -930 459 l-135 49 -53 87 c-29 48 -51 90 -48 92 6 6
168 -40 291 -84 503 -178 960 -439 1249 -713 61 -58 88 -79 68 -53 -86 111
-357 330 -589 475 -267 168 -795 393 -1016 432 -35 7 -41 12 -63 62 -13 30
-24 57 -24 59 0 10 45 4 129 -16 363 -87 755 -261 1039 -463 50 -36 92 -63 92
-61 0 2 -30 28 -67 58 -303 240 -712 424 -1184 531 -33 7 -90 86 -62 86 34 0
260 -61 407 -110 82 -28 151 -49 153 -47 9 9 -479 177 -612 210 -49 13 -136
16 -485 15 -234 0 -434 -2 -445 -5z m323 -20 c-2 -5 -10 -25 -17 -45 -11 -27
-22 -39 -40 -42 -80 -16 -253 -38 -257 -33 -7 7 32 83 47 93 12 7 183 30 242
33 16 0 27 -2 25 -6z m401 -3 c41 -6 76 -12 78 -14 2 -2 7 -21 10 -41 l6 -38
-44 6 c-24 4 -108 10 -186 13 -79 4 -143 11 -143 16 0 5 7 22 15 38 15 30 16
30 103 30 48 0 120 -5 161 -10z m-799 -45 c0 -2 -14 -26 -30 -52 -28 -44 -35
-49 -88 -60 -31 -6 -84 -18 -116 -27 -32 -9 -61 -14 -64 -11 -8 8 41 72 68 88
22 13 52 23 175 57 36 10 55 12 55 5z m-369 -128 c-37 -49 -44 -54 -103 -66
-35 -7 -78 -17 -95 -21 -18 -5 -33 -5 -33 0 0 5 21 27 46 49 34 30 67 47 118
62 39 11 76 22 81 24 25 9 23 2 -14 -48z m1204 44 l70 -6 19 -53 c10 -29 17
-54 15 -56 -2 -3 -94 -6 -204 -7 l-200 -3 -12 40 c-6 21 -12 51 -12 67 l-1 27
128 -1 c70 -1 158 -4 197 -8z m-483 -78 c2 -38 3 -70 1 -72 -3 -4 -283 -70
-301 -71 -10 0 -11 14 -6 63 4 34 10 69 15 77 6 12 156 49 281 69 3 1 8 -29
10 -66z m-436 -40 c-3 -16 -8 -51 -11 -79 l-6 -51 -82 -18 c-194 -43 -207 -44
-207 -25 0 14 35 121 45 137 2 4 155 44 200 53 66 13 67 12 61 -17z m-376 -67
c0 -2 -13 -33 -30 -68 l-30 -63 -127 -11 c-71 -5 -130 -9 -132 -7 -2 2 16 29
40 60 l45 58 95 16 c101 17 139 21 139 15z m1427 -8 c9 -14 52 -114 59 -138 4
-13 -10 -14 -96 -12 -88 3 -226 -12 -306 -34 -19 -5 -23 3 -44 80 -13 48 -21
88 -19 90 25 22 393 34 406 14z m-1817 -108 c-33 -38 -60 -60 -73 -60 -12 0
-57 -9 -99 -19 -43 -10 -78 -15 -78 -12 0 10 81 85 113 104 28 18 125 45 165
46 22 1 19 -5 -28 -59z m1243 -17 c8 -43 18 -86 22 -95 9 -22 -11 -32 -136
-63 -57 -14 -132 -35 -166 -46 -35 -11 -67 -18 -73 -14 -6 4 -10 50 -10 110
l0 104 38 10 c100 27 279 70 293 70 12 1 20 -18 32 -76z m-511 -64 c-2 -8 -5
-59 -6 -114 l-2 -100 -89 -22 c-49 -12 -120 -23 -159 -25 l-71 -3 2 60 c1 33
5 83 8 111 l6 52 87 17 c48 9 114 23 147 30 68 15 81 13 77 -6z m-445 -61 c-3
-13 -13 -60 -22 -106 l-18 -82 -156 6 c-86 4 -158 9 -161 11 -2 2 15 41 37 88
l42 83 63 6 c35 3 77 8 93 9 17 2 52 5 79 6 45 1 48 0 43 -21z m1621 16 c17
-5 37 -35 78 -115 l54 -109 -109 7 c-123 7 -203 -5 -289 -43 -30 -13 -59 -21
-64 -18 -16 10 -86 165 -90 199 l-3 29 110 27 c108 27 256 38 313 23z m-2030
-42 c-1 -4 -22 -39 -46 -79 -43 -71 -43 -71 -95 -78 -29 -4 -85 -15 -124 -25
l-73 -18 12 22 c19 36 85 131 100 143 28 24 235 56 226 35z m-386 -157 c-39
-58 -68 -89 -92 -101 -19 -9 -57 -32 -84 -50 -28 -19 -52 -31 -54 -29 -6 5
103 157 132 184 25 24 126 81 143 81 6 0 -14 -38 -45 -85z m1828 11 c12 -30
44 -88 71 -129 27 -42 49 -79 49 -84 0 -16 -104 -72 -235 -128 -71 -30 -130
-55 -131 -55 -4 0 -71 143 -105 224 -18 44 -29 81 -24 83 6 2 82 35 170 73 88
38 165 69 171 69 7 1 22 -23 34 -53z m-1260 -146 c181 -19 179 -18 184 -54 9
-62 27 -171 32 -192 6 -22 5 -22 -58 -8 -35 8 -132 17 -215 21 l-153 6 0 43
c0 37 6 79 26 172 5 26 31 28 184 12z m-335 -17 c-4 -10 -16 -61 -28 -114
l-21 -97 -78 -7 c-43 -3 -110 -15 -148 -26 -38 -10 -72 -19 -74 -19 -6 0 49
140 73 188 17 33 27 41 78 55 81 24 132 35 172 36 28 1 32 -2 26 -16z m1106
-133 c32 -80 58 -150 59 -157 1 -31 -187 -52 -300 -33 -97 16 -105 21 -119 72
-35 131 -51 195 -51 211 0 15 11 17 83 18 48 0 111 8 152 19 115 32 109 36
176 -130z m1389 -2 c101 -141 158 -234 149 -242 -2 -3 -38 1 -80 7 -65 9 -86
8 -145 -7 -38 -10 -78 -20 -89 -23 -15 -3 -25 4 -39 28 -29 49 -144 166 -235
239 -45 36 -81 68 -81 71 0 13 55 43 110 60 43 14 83 18 180 16 l125 -2 105
-147z m-2880 36 c0 -3 -13 -36 -28 -72 -16 -37 -35 -85 -43 -106 -12 -32 -30
-51 -97 -96 -45 -31 -93 -67 -107 -80 -14 -13 -25 -18 -25 -12 0 7 25 68 56
136 l56 123 86 57 c82 53 102 63 102 50z m2270 -119 c6 -8 59 -47 117 -86 107
-73 203 -160 203 -184 0 -23 -140 -144 -204 -175 -33 -17 -90 -37 -126 -44
-62 -13 -66 -13 -80 5 -60 78 -90 109 -186 187 -60 49 -117 98 -127 109 -17
20 -17 21 0 28 10 4 71 27 136 51 136 51 184 74 212 102 24 25 39 27 55 7z
m-1951 -175 c1 -14 0 -84 -4 -156 l-7 -131 -103 -16 c-57 -9 -143 -30 -192
-46 -48 -16 -89 -27 -91 -26 -7 6 52 307 62 320 24 32 229 86 306 81 19 -1 26
-7 29 -26z m490 20 c41 -6 100 -17 132 -26 67 -19 73 -31 71 -149 0 -60 -35
-261 -46 -272 -2 -2 -37 18 -78 44 -88 58 -170 86 -295 103 l-92 13 -3 141
c-2 77 -2 144 0 149 4 10 223 8 311 -3z m882 -156 c18 -19 72 -64 119 -99 91
-68 121 -102 100 -115 -7 -4 -35 -11 -63 -14 -65 -9 -270 -59 -420 -102 -74
-21 -141 -34 -177 -34 -58 0 -58 0 -64 33 -3 18 1 92 9 163 8 71 12 144 9 161
-7 38 -6 38 66 17 79 -23 239 -21 315 4 33 11 62 20 66 21 3 1 21 -15 40 -35z
m-1860 -76 c-11 -46 -27 -115 -36 -153 -15 -67 -19 -73 -80 -128 -35 -32 -85
-86 -111 -120 -26 -34 -51 -66 -56 -72 -11 -12 -7 13 34 220 l30 150 56 58
c55 56 171 142 180 133 2 -3 -5 -42 -17 -88z m3268 -25 c16 -32 41 -257 37
-343 -6 -125 -20 -158 -78 -180 -26 -10 -107 -48 -180 -85 -113 -56 -218 -91
-218 -72 0 2 16 36 35 75 19 39 39 88 44 109 5 21 21 83 36 138 14 55 29 141
32 191 l6 91 89 46 c71 37 100 47 138 47 37 0 52 -4 59 -17z m-453 -226 c-7
-76 -28 -168 -51 -229 -8 -21 -17 -51 -20 -69 -3 -17 -19 -57 -35 -90 l-30
-59 -108 0 c-60 0 -160 9 -227 20 -66 11 -162 20 -212 20 -51 0 -93 3 -93 7 0
15 42 93 51 93 5 0 9 6 9 13 0 8 47 44 105 82 58 38 114 79 123 93 16 21 27
24 98 27 116 4 207 42 339 143 22 17 44 28 49 25 5 -3 6 -37 2 -76z m-2356
-189 c-1 -84 -4 -171 -7 -194 l-5 -41 -101 5 c-108 4 -216 -12 -282 -44 -20
-9 -37 -15 -39 -13 -3 5 23 321 29 336 12 33 240 94 383 102 l23 1 -1 -152z
m319 133 c33 -10 94 -42 136 -70 83 -57 103 -66 190 -90 l60 -16 23 -80 c27
-93 46 -244 37 -291 -5 -29 -8 -32 -28 -25 -13 5 -65 12 -117 16 -92 6 -201
36 -383 105 l-57 22 4 101 c2 56 5 157 5 225 l1 122 34 0 c19 0 61 -8 95 -19z
m1291 -9 c0 -4 -32 -39 -71 -77 -94 -93 -109 -120 -116 -203 l-6 -69 -41 -11
c-59 -16 -88 -42 -142 -130 -75 -121 -122 -169 -181 -187 -19 -5 -23 -2 -23
17 0 13 -16 92 -35 176 -19 84 -37 175 -41 203 l-7 49 31 0 c24 0 51 16 114
70 141 118 267 167 431 169 48 1 87 -2 87 -7z m-2162 -337 l-12 -180 -58 -64
c-31 -35 -79 -95 -105 -133 l-48 -70 -8 53 c-4 30 -8 104 -10 166 l-2 111 57
84 c55 81 184 226 193 217 2 -3 -1 -86 -7 -184z m3309 -226 c3 -227 -10 -294
-70 -343 -63 -51 -138 -94 -201 -116 -67 -23 -289 -45 -355 -35 l-46 7 72 67
c114 106 132 152 93 240 -11 24 -20 56 -20 71 0 26 3 28 62 34 74 9 158 46
253 111 52 37 206 135 210 135 0 0 1 -77 2 -171z m-772 8 l59 -22 -2 -45 c-2
-26 6 -70 18 -104 34 -99 29 -114 -59 -211 -25 -27 -57 -66 -70 -86 -21 -31
-37 -40 -125 -69 -62 -20 -130 -35 -175 -38 l-74 -5 21 35 c38 62 55 160 48
283 -4 61 -9 124 -12 141 -5 27 -2 33 28 51 18 11 60 37 92 57 53 32 67 36
125 35 42 0 88 -8 126 -22z m-2050 -69 c2 -2 -5 -36 -16 -74 -11 -38 -23 -118
-27 -179 l-7 -110 -83 -6 c-68 -5 -96 -13 -158 -44 -42 -20 -77 -35 -79 -33
-4 4 -25 274 -25 327 l0 42 67 31 c94 44 156 58 246 54 42 -1 79 -5 82 -8z
m383 -89 c76 -24 167 -44 241 -54 159 -19 171 -23 171 -49 0 -43 -94 -376
-106 -376 -21 0 -564 168 -564 175 0 34 27 182 47 257 l26 97 31 -6 c17 -3 86
-23 154 -44z m1168 -26 c10 -79 -13 -186 -59 -275 -52 -102 -76 -128 -121
-128 -19 0 -55 -9 -79 -19 -25 -11 -47 -18 -49 -16 -2 3 -47 -11 -99 -31 -105
-39 -219 -56 -219 -33 0 34 52 202 87 283 l38 89 60 17 c71 19 122 45 230 114
64 41 91 52 135 56 30 3 58 3 63 0 4 -4 10 -29 13 -57z m-2037 -155 c7 -62 19
-143 27 -180 l15 -67 -45 -56 c-25 -31 -55 -74 -67 -96 -11 -23 -22 -39 -24
-37 -6 6 -82 255 -89 293 -5 23 2 44 31 94 37 62 118 161 132 161 4 0 13 -51
20 -112z m3201 -203 c0 -13 -87 -219 -121 -286 l-38 -76 -128 -25 c-89 -17
-171 -42 -268 -81 -77 -30 -141 -55 -141 -54 -1 1 7 36 18 77 11 41 22 124 25
183 5 101 8 109 28 117 13 5 99 20 193 35 185 28 315 60 377 93 40 21 55 26
55 17z m-3377 -183 l48 -148 -15 -59 c-8 -33 -19 -78 -24 -100 l-8 -40 -25 55
c-49 105 -83 205 -83 240 0 38 43 200 53 200 3 0 28 -67 54 -148z m653 -109
c12 -62 36 -154 53 -205 17 -51 31 -95 31 -98 0 -3 -35 -5 -77 -5 -43 0 -101
-4 -130 -8 -50 -8 -52 -8 -67 20 -16 33 -116 326 -116 343 0 18 69 42 160 55
131 20 121 27 146 -102z m318 68 c94 -22 207 -52 251 -68 77 -27 80 -29 78
-58 -2 -17 -6 -111 -9 -211 l-7 -181 -76 29 c-140 54 -181 67 -244 78 -34 6
-71 13 -83 15 -17 4 -26 22 -47 92 -48 164 -72 343 -46 343 6 0 88 -18 183
-39z m1546 -94 c-30 -92 -42 -174 -34 -244 6 -56 4 -67 -13 -86 -11 -12 -34
-42 -50 -67 -46 -68 -85 -102 -168 -146 -64 -33 -77 -37 -85 -24 -24 38 -83
240 -88 301 -5 73 13 251 28 280 18 33 74 40 198 27 95 -10 121 -10 170 3 31
8 58 15 59 14 1 0 -7 -26 -17 -58z m-2186 -115 c27 -75 57 -154 67 -174 l19
-37 -27 -21 c-15 -12 -39 -40 -54 -62 l-27 -40 -16 23 c-8 13 -43 82 -76 152
l-61 128 32 52 c43 68 80 117 88 117 3 0 28 -62 55 -138z m1636 -93 c-14 -143
-8 -229 26 -347 30 -103 28 -105 -71 -97 -49 5 -95 18 -155 44 -47 21 -130 55
-185 76 -55 21 -104 42 -109 46 -11 10 6 128 41 277 26 113 27 114 52 107 14
-4 90 -9 169 -11 119 -3 150 -1 190 14 26 10 49 17 51 16 2 -2 -2 -58 -9 -125z
m1177 8 c-22 -59 -68 -225 -78 -282 -12 -70 -12 -70 -58 -92 -61 -29 -160
-119 -201 -183 -18 -27 -36 -50 -40 -50 -10 0 -88 278 -104 371 -6 33 -3 40
25 64 62 52 235 128 374 165 86 23 88 23 82 7z m-2878 -273 c22 -40 22 -42 7
-94 -9 -30 -16 -64 -16 -77 0 -34 -12 -28 -44 22 -73 116 -116 209 -116 249 0
38 13 111 26 146 3 9 28 -29 62 -95 32 -61 68 -128 81 -151z m2366 -264 c32
-96 60 -179 62 -183 10 -16 -83 -91 -152 -122 -67 -31 -182 -65 -218 -65 -10
0 -22 11 -27 24 -17 45 -59 261 -52 267 4 4 30 14 58 23 99 32 184 105 235
201 13 24 27 41 30 37 4 -4 33 -86 64 -182z m-1779 155 c12 -4 33 -31 52 -68
33 -65 110 -209 143 -265 10 -18 19 -35 19 -38 0 -2 -45 -4 -99 -4 l-99 0 -45
68 c-82 125 -194 297 -202 311 -7 12 9 13 101 8 60 -4 118 -9 130 -12z m-190
-155 c53 -80 110 -162 127 -183 16 -21 26 -41 23 -44 -12 -13 -121 -42 -127
-35 -114 136 -205 255 -227 298 -10 18 -8 27 10 49 22 28 78 67 90 62 4 -1 50
-67 104 -147z m434 116 c94 -16 205 -43 231 -56 9 -5 35 -49 58 -97 23 -48 67
-130 98 -181 31 -51 54 -94 52 -97 -5 -5 -234 37 -312 58 -32 9 -65 23 -72 33
-14 20 -175 339 -175 348 0 9 26 7 120 -8z m1985 -123 c3 -16 18 -53 32 -83
15 -30 41 -91 59 -135 l33 -80 -22 -18 c-31 -25 -187 -131 -215 -146 -22 -11
-24 -8 -63 76 -22 48 -48 105 -56 125 l-15 38 53 67 c70 89 170 194 179 188 4
-3 11 -17 15 -32z m-1355 -45 c128 -42 171 -51 252 -56 l98 -5 25 -86 c14 -47
35 -107 45 -133 11 -26 20 -49 20 -52 0 -9 -88 -7 -160 4 -36 6 -117 17 -180
25 -155 20 -152 19 -177 64 -26 45 -98 206 -119 265 l-14 38 28 -6 c15 -4 97
-30 182 -58z m-1245 -16 c28 -36 80 -101 117 -144 l67 -78 -22 -50 c-12 -27
-25 -48 -28 -47 -9 3 -149 164 -197 225 -34 44 -39 56 -32 80 11 38 32 82 39
82 3 -1 29 -31 56 -68z m-27 -184 c39 -46 89 -103 111 -128 28 -31 41 -54 41
-75 0 -16 3 -41 6 -55 4 -18 -23 4 -101 84 -59 60 -110 118 -115 130 -10 27
-23 126 -17 126 3 0 37 -37 75 -82z m2406 -280 c-17 -28 -271 -148 -312 -148
-23 0 -177 169 -165 180 5 4 50 17 101 28 104 24 174 56 235 106 l41 34 52
-96 c29 -53 50 -100 48 -104z m-1520 -6 c61 -59 133 -126 159 -148 l49 -41
-94 -6 c-76 -5 -98 -3 -118 10 -14 9 -83 75 -155 147 l-130 131 35 6 c19 4 60
7 89 8 l55 1 110 -108z m-262 14 c42 -46 111 -112 152 -147 42 -34 74 -64 72
-66 -1 -1 -30 -7 -65 -11 l-62 -9 -47 41 c-125 107 -242 220 -242 232 0 7 19
18 43 24 23 6 47 13 52 15 6 2 12 4 15 4 3 1 40 -37 82 -83z m460 52 l136 -21
38 -49 c20 -27 73 -83 118 -125 l81 -76 -148 6 c-131 5 -150 8 -175 27 -31 25
-202 191 -247 240 l-30 33 45 -7 c25 -3 106 -16 182 -28z m1672 -141 c-9 -29
-28 -73 -42 -99 -23 -44 -31 -50 -101 -77 -138 -52 -131 -55 -101 32 11 32 20
82 20 115 l0 59 48 22 c26 12 79 41 117 65 l70 43 3 -54 c2 -32 -4 -76 -14
-106z m-2174 -57 c47 -40 91 -78 98 -85 11 -10 7 -16 -23 -34 -21 -12 -42 -18
-49 -14 -24 14 -266 228 -266 235 0 3 12 21 26 38 l27 31 51 -49 c28 -27 89
-82 136 -122z m1303 55 c48 -48 86 -89 85 -91 -6 -6 -177 -23 -284 -29 -110
-6 -112 -6 -145 21 -50 40 -189 177 -189 186 0 5 100 7 223 5 l222 -3 88 -89z
m-1480 -45 c37 -32 98 -84 137 -116 62 -50 70 -60 70 -90 0 -19 -3 -34 -7 -34
-8 0 -177 128 -231 177 -35 30 -45 46 -49 81 -3 23 -1 42 4 42 5 0 39 -27 76
-60z m2054 -57 c-6 -106 -12 -121 -46 -129 -14 -3 -64 -17 -111 -31 -47 -14
-91 -26 -98 -27 -11 -1 -51 86 -55 122 -1 7 29 25 68 42 39 15 104 47 145 69
41 22 81 40 89 41 11 0 13 -17 8 -87z m-360 -143 c18 -30 33 -58 33 -62 0 -9
-82 -32 -173 -48 -55 -10 -71 -10 -86 1 -97 71 -152 119 -140 123 8 2 72 12
144 21 71 9 132 19 134 21 3 3 17 4 31 2 18 -2 34 -17 57 -58z m-379 -62 c56
-39 100 -74 97 -76 -2 -2 -50 -12 -107 -21 -72 -13 -109 -15 -123 -8 -11 6
-72 44 -135 86 l-115 76 105 6 c58 3 121 6 141 7 29 2 52 -10 137 -70z m-349
-5 c48 -32 110 -71 137 -87 l49 -29 -55 -13 c-30 -7 -67 -13 -81 -14 -28 0
-149 69 -244 140 l-60 45 40 6 c106 16 122 12 214 -48z m-198 -29 c45 -32 109
-72 143 -90 64 -35 64 -36 -13 -53 -40 -9 -50 -7 -110 24 -82 41 -228 137
-230 150 -2 11 95 35 116 29 7 -2 49 -29 94 -60z m1400 39 c-11 -16 -55 -65
-98 -111 -63 -67 -86 -85 -118 -92 -22 -5 -41 -7 -43 -5 -3 2 24 46 59 98 l63
93 71 21 c92 27 89 27 66 -4z m-1620 -36 c49 -33 198 -121 242 -144 l38 -19
-35 -16 c-34 -17 -35 -17 -118 23 -118 58 -239 131 -235 144 4 11 46 35 63 35
6 0 26 -10 45 -23z m1436 -4 c-39 -73 -111 -183 -120 -183 -7 0 -29 -3 -49 -6
l-38 -7 0 69 c0 38 4 74 8 80 14 21 210 67 199 47z m-234 -128 c4 -37 6 -69 5
-70 -2 -1 -22 -5 -45 -9 -38 -5 -46 -3 -78 25 -19 17 -44 44 -55 59 l-20 28
82 20 c46 11 88 19 93 18 6 -2 13 -33 18 -71z"/>
<path d="M19528 4069 c-317 -25 -620 -133 -876 -316 -145 -103 -322 -294 -420
-456 -187 -304 -272 -627 -272 -1029 0 -354 52 -594 190 -873 257 -519 745
-831 1420 -910 164 -20 471 -19 630 0 346 43 723 171 965 329 47 31 85 59 85
64 0 4 -41 113 -91 242 -49 129 -117 307 -151 395 -33 88 -64 164 -68 168 -4
5 -43 -14 -87 -41 -443 -278 -1057 -344 -1380 -150 -129 77 -229 229 -277 419
l-24 94 1067 5 1066 5 3 190 c11 627 -133 1077 -453 1414 -116 122 -245 218
-394 291 -185 92 -378 141 -623 160 -146 11 -155 11 -310 -1z m341 -854 c145
-34 241 -115 310 -260 43 -88 66 -174 77 -277 l7 -68 -553 0 -552 0 6 48 c43
302 198 509 419 557 84 18 208 18 286 0z"/>
<path d="M14906 3777 c3 -10 9 -15 12 -12 3 3 0 11 -7 18 -10 9 -11 8 -5 -6z"/>
</g>
</svg>
